<mxfile host="app.diagrams.net" modified="2020-05-12T12:59:53.733Z" agent="5.0 (Windows NT 10.0; Win64; x64) AppleWebKit/537.36 (KHTML, like Gecko) Chrome/81.0.4044.138 Safari/537.36" etag="45OdkLt5ESDObBDMexcv" version="13.1.0" type="github" pages="2">
  <diagram id="9SLuy1cNbQ2G_u0qKm9q" name="Page-1">
    <mxGraphModel dx="1021" dy="769" grid="1" gridSize="10" guides="1" tooltips="1" connect="1" arrows="1" fold="1" page="1" pageScale="1" pageWidth="827" pageHeight="1169" math="0" shadow="0">
      <root>
        <mxCell id="0" />
        <mxCell id="1" parent="0" />
        <mxCell id="2e4p6PxHYIDBqyLsvb8u-1" value="GÅ‚osowanie" style="rounded=1;whiteSpace=wrap;html=1;fillColor=#dae8fc;strokeColor=#6c8ebf;" parent="1" vertex="1">
          <mxGeometry x="290" y="230" width="310" height="40" as="geometry" />
        </mxCell>
        <mxCell id="2e4p6PxHYIDBqyLsvb8u-2" value="Wynikowa predykcja" style="rounded=1;whiteSpace=wrap;html=1;fillColor=#dae8fc;strokeColor=#6c8ebf;" parent="1" vertex="1">
          <mxGeometry x="385" y="130" width="120" height="40" as="geometry" />
        </mxCell>
        <mxCell id="2e4p6PxHYIDBqyLsvb8u-3" value="Drzewo decyzyjne" style="rounded=1;whiteSpace=wrap;html=1;fillColor=#dae8fc;strokeColor=#6c8ebf;" parent="1" vertex="1">
          <mxGeometry x="290" y="310" width="120" height="40" as="geometry" />
        </mxCell>
        <mxCell id="2e4p6PxHYIDBqyLsvb8u-4" value="Drzewo decyzyjne" style="rounded=1;whiteSpace=wrap;html=1;fillColor=#dae8fc;strokeColor=#6c8ebf;" parent="1" vertex="1">
          <mxGeometry x="480" y="310" width="120" height="40" as="geometry" />
        </mxCell>
        <mxCell id="2e4p6PxHYIDBqyLsvb8u-5" value="" style="endArrow=classic;html=1;entryX=0.5;entryY=1;entryDx=0;entryDy=0;" parent="1" source="2e4p6PxHYIDBqyLsvb8u-1" target="2e4p6PxHYIDBqyLsvb8u-2" edge="1">
          <mxGeometry width="50" height="50" relative="1" as="geometry">
            <mxPoint x="410" y="270" as="sourcePoint" />
            <mxPoint x="460" y="220" as="targetPoint" />
          </mxGeometry>
        </mxCell>
        <mxCell id="2e4p6PxHYIDBqyLsvb8u-6" value="&lt;font style=&quot;font-size: 25px&quot;&gt;...&lt;/font&gt;" style="text;html=1;align=center;verticalAlign=middle;resizable=0;points=[];autosize=1;" parent="1" vertex="1">
          <mxGeometry x="425" y="320" width="40" height="20" as="geometry" />
        </mxCell>
        <mxCell id="2e4p6PxHYIDBqyLsvb8u-7" value="" style="endArrow=classic;html=1;exitX=0.583;exitY=0;exitDx=0;exitDy=0;entryX=0.226;entryY=1.025;entryDx=0;entryDy=0;entryPerimeter=0;exitPerimeter=0;" parent="1" source="2e4p6PxHYIDBqyLsvb8u-3" target="2e4p6PxHYIDBqyLsvb8u-1" edge="1">
          <mxGeometry width="50" height="50" relative="1" as="geometry">
            <mxPoint x="340" y="490" as="sourcePoint" />
            <mxPoint x="347" y="271" as="targetPoint" />
          </mxGeometry>
        </mxCell>
        <mxCell id="2e4p6PxHYIDBqyLsvb8u-8" value="" style="endArrow=classic;html=1;" parent="1" edge="1">
          <mxGeometry width="50" height="50" relative="1" as="geometry">
            <mxPoint x="536" y="310" as="sourcePoint" />
            <mxPoint x="536" y="270" as="targetPoint" />
          </mxGeometry>
        </mxCell>
      </root>
    </mxGraphModel>
  </diagram>
  <diagram id="IRCTlLEeJn8GBJFb2pMH" name="Page-2">
    <mxGraphModel dx="1021" dy="769" grid="1" gridSize="10" guides="1" tooltips="1" connect="1" arrows="1" fold="1" page="1" pageScale="1" pageWidth="827" pageHeight="1169" math="0" shadow="0">
      <root>
        <mxCell id="YA5fYmywzuV7nNgQzWsX-0" />
        <mxCell id="YA5fYmywzuV7nNgQzWsX-1" parent="YA5fYmywzuV7nNgQzWsX-0" />
      </root>
    </mxGraphModel>
  </diagram>
</mxfile>
